<?xml version="1.0" encoding="utf-8"?>
<!-- Generator: Adobe Illustrator 22.0.1, SVG Export Plug-In . SVG Version: 6.00 Build 0)  -->
<svg version="1.1" id="Layer_1" xmlns="http://www.w3.org/2000/svg" xmlns:xlink="http://www.w3.org/1999/xlink" x="0px" y="0px"
	 viewBox="0 0 66.8 64.9" style="enable-background:new 0 0 66.8 64.9;" xml:space="preserve">
<style type="text/css">
	.st0{fill:#E73431;}
	.st1{fill:#FFFFFF;}
	.st2{fill:#F7A600;}
</style>
<path class="st0" d="M66.8,45.5c0,10.8-9,19.5-20.1,19.5H20.1C9,64.9,0,56.2,0,45.5v-26C0,8.7,9,0,20.1,0h26.7
	c11.1,0,20.1,8.7,20.1,19.5V45.5z"/>
<path class="st1" d="M15.3,29.5c-1-0.9-1.5-1.1-3-1.1c-1.8,0-3.1,1.5-3.1,3.5c0,1.9,1.4,3.7,3.5,3.7c1.1,0,1.8-0.1,2.9-0.7l0.9,2.8
	c-1.3,0.6-2.3,0.9-4.3,0.9c-5.6,0-7.3-3.8-7.3-6.8s1.8-6.6,7.3-6.6c1.9,0,3.1,0.5,4.6,1.4L15.3,29.5z"/>
<path class="st1" d="M23.7,30.3l-1.1,3.3h2.1L23.7,30.3z M26.3,38.3l-0.9-2.5h-3.5l-1,2.5h-4.1l5.1-12.7h3.5l5.1,12.7H26.3z"/>
<path class="st1" d="M35.9,28.4h-0.8v3.4c0.2,0,0.8,0,0.8,0c0.8,0,1.6-0.6,1.6-1.9C37.6,28.8,36.8,28.4,35.9,28.4 M36.2,34.6
	c-0.3,0-0.7,0-1-0.1v3.8h-4.1V25.6h5.5c2.8,0,5.2,1.2,5.2,4.3C41.7,33.4,39.1,34.6,36.2,34.6"/>
<path class="st2" d="M45.8,32.6l-2.6,3.6h2.6V32.6z M48.8,38.3V42h-3v-3.7h-5.9v-1.6l6-8h3v7.4H51v2.1H48.8z"/>
<path class="st2" d="M56.6,33.2c-0.7,0.6-1.3,1.1-1.3,1.7c0,0.7,0.4,1.4,1.3,1.4c1,0,1.3-0.7,1.3-1.5C57.9,34.1,57.3,33.7,56.6,33.2
	 M56.6,27.2c-0.8,0-1.4,0.4-1.4,1.1c0,0.6,0.8,1.2,1.4,1.5c0.6-0.4,1.3-1,1.3-1.5C57.9,27.6,57.4,27.2,56.6,27.2 M56.5,38.6
	c-2.7,0-5.1-1.5-5.1-3.5c0-2,1.6-2.7,3-3.6c-1.8-1-2.5-2-2.5-3.4c0-1.9,2.3-3.2,4.9-3.2c2.4,0,4.6,1.3,4.6,3.1
	c0,1.4-0.7,2.1-2.5,3.4c1.3,0.9,3.1,1.7,3.1,3.7C61.9,36.9,60.2,38.6,56.5,38.6"/>
</svg>
